# xmcd CD database file
#
# Track frame offsets:
#	153
#	18065
#	33873
#	64764
#	76058
#	92100
#	104472
#	118407
#	140364
#	150766
#	174156
#	191611
#	214096
#	237914
#	251049
#	259949
#	274545
#
# Disc length: 3875 seconds
#
# Revision: 0
# Processed by: cddbd v1.5.2PL0 Copyright (c) Steve Scherf et al.
# Submitted via: CDex 1.70beta2
#
DISCID=d90f2111
DTITLE=Various Artist - Jazz in the City 2 - Disc Two
DYEAR=2008
DGENRE=Jazz
TTITLE0=Michael Buble - Feeling Good
TTITLE1=Norah Jones - What Am I To You?
TTITLE2=Rosa Passos - Besame Mucho
TTITLE3=Westlife - Fly Me To The Moon
TTITLE4=Keiko Lee - Night and Day
TTITLE5=Sinead O' Connor - I Want To Be Loved By You
TTITLE6=Alison Moyet - That Ole Devil Called Love
TTITLE7=Jane Monheit - Do I Love You?
TTITLE8=Bette Midler - Big Spender
TTITLE9=Eliane Elias - So Nice (Samba De Verao)
TTITLE10=Michael Bolton - When a Man Loves a Woman
TTITLE11=Neville Brothers - Bird On a Wire
TTITLE12=Annie Lennox - A Whiter Shade of Pale
TTITLE13=Rick Astley - And I Love You So
TTITLE14=John Pizzarelli - Unforgettable
TTITLE15=Martina McBride - True Love Ways
TTITLE16=George Benson - The Greatest Love of All
EXTD=YEAR: 2008
EXTT0=
EXTT1=
EXTT2=
EXTT3=
EXTT4=
EXTT5=
EXTT6=
EXTT7=
EXTT8=
EXTT9=
EXTT10=
EXTT11=
EXTT12=
EXTT13=
EXTT14=
EXTT15=
EXTT16=
PLAYORDER=
